<?xml version="1.0" standalone="no"?>
<!DOCTYPE svg PUBLIC "-//W3C//DTD SVG 20010904//EN"
 "http://www.w3.org/TR/2001/REC-SVG-20010904/DTD/svg10.dtd">
<svg version="1.0" xmlns="http://www.w3.org/2000/svg"
 width="3750.000000pt" height="3750.000000pt" viewBox="0 0 3750.000000 3750.000000"
 preserveAspectRatio="xMidYMid meet">
<metadata>
Created by potrace 1.11, written by Peter Selinger 2001-2013
</metadata>
<g transform="translate(0.000000,3750.000000) scale(0.100000,-0.100000)"
fill="#000000" stroke="none">
<path d="M31433 37227 c-17 -5 -44 -23 -60 -39 -27 -28 -28 -34 -28 -121 1
-81 8 -283 20 -557 2 -47 6 -161 9 -255 4 -93 9 -210 11 -260 3 -49 7 -153 10
-230 3 -77 8 -196 10 -265 3 -69 8 -177 10 -240 5 -147 14 -355 20 -495 3 -60
7 -176 10 -256 3 -81 7 -189 9 -240 3 -52 8 -161 11 -244 3 -82 8 -202 10
-265 3 -63 8 -169 10 -235 7 -194 15 -394 20 -485 2 -47 7 -166 11 -265 3 -99
7 -209 9 -245 2 -36 6 -152 10 -257 3 -106 10 -207 15 -224 5 -18 27 -62 49
-98 33 -56 371 -640 435 -752 39 -68 82 -144 104 -181 12 -21 32 -55 43 -75
42 -74 173 -299 231 -396 32 -54 58 -100 58 -102 0 -2 47 -84 103 -182 112
-192 290 -499 317 -548 9 -16 59 -102 110 -190 51 -88 104 -180 118 -205 13
-25 28 -49 32 -55 4 -5 19 -30 32 -55 14 -25 108 -187 208 -360 101 -173 194
-335 208 -360 13 -25 28 -49 32 -55 4 -5 19 -30 32 -55 37 -66 169 -296 256
-445 42 -71 81 -139 86 -150 73 -136 114 -172 182 -163 35 5 302 156 1454 823
69 40 199 115 290 167 91 53 199 115 240 140 41 24 83 47 92 51 10 3 27 21 38
39 37 62 29 89 -86 289 -59 101 -115 200 -126 219 -11 19 -71 123 -133 230
-62 107 -123 213 -135 235 -12 22 -37 65 -55 95 -28 46 -560 968 -615 1065 -9
17 -76 131 -147 255 -72 124 -139 241 -150 260 -11 19 -53 91 -93 160 -98 169
-327 566 -355 615 -43 75 -520 900 -535 925 -25 40 -267 462 -293 510 -16 30
-33 60 -37 65 -4 6 -51 87 -105 180 -54 94 -189 328 -300 520 -112 193 -212
366 -223 385 -39 69 -245 426 -291 505 -26 44 -50 87 -54 95 -4 8 -15 29 -26
45 -23 39 -105 180 -249 430 -253 440 -323 561 -332 575 -10 17 -63 108 -90
155 -9 17 -68 118 -130 225 -62 107 -126 220 -143 250 -45 84 -100 116 -164
97z"/>
<path d="M5981 37219 c-14 -5 -32 -20 -40 -32 -18 -25 -81 -128 -81 -132 0 -2
-53 -94 -119 -206 -65 -112 -128 -222 -140 -244 -12 -22 -27 -49 -34 -60 -18
-29 -51 -85 -79 -135 -40 -71 -62 -109 -115 -200 -28 -47 -120 -207 -206 -356
-86 -149 -164 -285 -174 -302 -10 -17 -63 -109 -118 -204 -55 -95 -104 -181
-110 -190 -5 -9 -17 -29 -26 -45 -17 -31 -147 -257 -339 -588 -70 -121 -137
-236 -147 -255 -11 -19 -34 -59 -52 -88 -17 -29 -31 -55 -31 -57 0 -3 -15 -28
-33 -57 -19 -29 -37 -60 -40 -68 -4 -8 -15 -28 -26 -45 -16 -27 -114 -197
-266 -460 -31 -55 -72 -125 -90 -155 -18 -30 -44 -75 -57 -100 -14 -25 -58
-101 -98 -170 -40 -69 -80 -139 -90 -156 -10 -16 -52 -90 -95 -164 -43 -74
-86 -150 -97 -169 -11 -20 -84 -146 -163 -281 -78 -135 -238 -411 -355 -615
-268 -466 -345 -599 -669 -1160 -174 -301 -307 -530 -396 -685 -40 -69 -104
-181 -144 -249 -39 -68 -71 -126 -71 -129 0 -3 -6 -13 -14 -21 -7 -9 -27 -41
-44 -71 -17 -30 -78 -138 -136 -239 -78 -136 -106 -192 -106 -218 0 -38 14
-70 39 -93 17 -15 30 -23 105 -65 23 -13 146 -84 275 -159 128 -75 235 -136
237 -136 3 0 41 -22 85 -50 44 -27 83 -50 85 -50 2 0 86 -48 187 -106 100 -59
196 -114 212 -124 17 -9 134 -77 260 -150 127 -73 249 -143 272 -156 23 -13
108 -63 190 -110 162 -94 206 -108 257 -80 34 18 46 37 182 274 46 81 88 154
94 162 5 8 19 32 30 53 12 21 66 116 122 210 55 95 110 190 123 212 50 88 126
221 134 235 5 8 50 85 99 170 49 85 123 214 164 285 41 72 150 261 242 420 92
160 185 319 206 355 21 36 61 106 89 155 28 50 56 97 61 105 5 8 22 38 38 65
48 85 69 120 262 455 103 179 198 343 210 365 12 22 26 45 30 50 4 6 19 30 33
55 60 108 135 238 160 277 15 24 27 44 27 47 0 3 94 166 213 372 54 91 55 95
62 310 3 88 7 209 10 269 5 105 9 215 20 495 3 69 7 175 10 235 3 61 7 173 10
250 3 77 7 190 10 250 3 61 7 171 10 245 3 74 7 187 10 250 3 63 7 178 10 255
3 77 7 190 10 250 5 130 15 354 20 503 2 59 7 166 10 237 12 277 15 365 20
500 3 77 7 190 10 250 4 106 9 221 20 505 13 303 13 383 4 404 -24 53 -106 80
-168 55z"/>
<path d="M15028 35010 c-94 -28 -172 -132 -172 -230 0 -52 8 -90 70 -350 29
-119 31 -128 44 -190 5 -25 32 -142 60 -260 28 -118 53 -228 56 -245 15 -85
97 -166 187 -185 38 -8 1006 -10 3512 -8 l3460 3 48 28 c48 29 104 93 112 131
3 12 18 77 34 146 16 69 44 186 61 260 17 74 37 162 45 195 108 453 114 497
80 569 -22 46 -70 96 -117 122 -32 18 -144 19 -3743 21 -2040 1 -3722 -2
-3737 -7z"/>
<path d="M13269 31424 c-22 -7 -50 -19 -63 -28 -21 -13 -131 -179 -297 -449
-30 -48 -73 -118 -97 -155 -23 -37 -52 -85 -62 -107 -35 -71 -22 -158 33 -217
48 -51 58 -54 362 -93 17 -2 46 -6 65 -9 53 -6 132 -17 160 -22 14 -2 48 -7
76 -9 28 -3 60 -7 71 -9 10 -2 46 -7 78 -11 33 -4 69 -9 80 -11 11 -2 47 -7
80 -10 33 -3 63 -8 66 -10 3 -1 37 -6 75 -9 38 -4 72 -9 75 -11 3 -2 33 -6 65
-9 32 -4 70 -8 84 -10 14 -3 50 -7 80 -10 30 -4 62 -8 70 -10 8 -2 42 -7 75
-11 33 -3 68 -8 79 -10 10 -2 44 -6 75 -10 31 -3 64 -8 75 -10 10 -2 44 -6 75
-10 31 -3 58 -8 61 -9 3 -2 39 -6 80 -10 41 -4 77 -8 80 -10 3 -2 34 -6 70
-10 36 -4 72 -8 80 -10 9 -2 43 -6 75 -10 33 -4 69 -9 80 -11 11 -3 43 -7 70
-9 28 -3 61 -8 75 -10 14 -2 44 -6 68 -9 23 -3 61 -9 85 -12 23 -3 53 -7 67
-9 14 -2 50 -6 80 -10 30 -3 66 -8 80 -10 23 -4 72 -11 137 -19 93 -13 203
-27 231 -31 18 -3 54 -8 80 -11 26 -3 58 -7 72 -9 42 -6 103 -14 150 -20 25
-4 56 -8 70 -10 14 -2 61 -9 104 -15 93 -12 130 -31 169 -86 52 -75 45 -183
-17 -242 -17 -17 -176 -103 -356 -194 -323 -162 -325 -163 -390 -162 -36 0
-78 3 -95 6 -40 8 -303 56 -335 62 -14 2 -74 13 -135 25 -60 11 -123 23 -140
26 -16 2 -55 9 -85 15 -30 6 -67 12 -82 15 -16 3 -40 7 -55 10 -16 3 -44 8
-63 11 -19 3 -43 8 -53 10 -10 3 -35 8 -55 10 -20 3 -44 7 -52 9 -8 2 -31 7
-50 10 -19 3 -60 10 -90 17 -30 6 -64 12 -75 13 -11 1 -33 4 -50 8 -16 4 -41
8 -55 11 -14 2 -88 15 -165 30 -77 14 -153 28 -170 30 -16 3 -154 29 -305 56
-151 28 -291 53 -310 56 -19 2 -42 7 -50 9 -8 3 -33 7 -55 10 -22 4 -72 13
-110 21 -39 7 -84 16 -100 18 -35 5 -248 43 -285 52 -14 3 -54 8 -90 10 -54 5
-72 2 -110 -18 -66 -34 -102 -91 -103 -164 -2 -54 8 -187 18 -245 2 -13 6 -60
10 -104 3 -44 7 -96 9 -115 5 -40 13 -122 21 -207 3 -32 8 -76 10 -98 2 -22 7
-69 10 -105 3 -36 8 -83 10 -105 2 -22 7 -71 10 -110 4 -38 8 -80 10 -92 2
-12 6 -61 10 -110 3 -48 8 -99 10 -113 2 -14 7 -56 10 -95 4 -38 8 -86 10
-105 2 -19 7 -64 10 -100 4 -36 8 -83 10 -105 2 -22 6 -67 9 -100 3 -33 8 -80
10 -105 3 -25 8 -79 11 -120 4 -41 8 -86 10 -99 2 -12 7 -60 10 -105 4 -44 8
-92 11 -106 2 -14 6 -59 9 -100 4 -41 8 -85 10 -96 2 -12 6 -61 10 -110 3 -49
8 -96 10 -104 2 -8 7 -49 10 -90 3 -41 8 -93 10 -115 2 -22 7 -71 10 -110 4
-38 9 -83 11 -100 2 -16 6 -64 9 -105 4 -41 8 -91 11 -110 2 -19 6 -64 9 -100
3 -36 7 -81 10 -100 2 -19 6 -64 10 -100 7 -82 15 -155 20 -200 2 -19 7 -71
10 -115 3 -44 8 -91 10 -105 2 -14 6 -56 10 -95 3 -38 8 -88 10 -110 2 -22 7
-71 10 -110 6 -67 10 -106 20 -197 2 -24 7 -72 10 -108 5 -60 10 -112 20 -200
2 -19 7 -71 10 -115 3 -44 8 -93 10 -110 4 -32 11 -104 20 -200 9 -105 16
-179 20 -205 2 -14 6 -61 10 -105 3 -44 8 -93 10 -110 4 -29 12 -117 20 -215
2 -25 7 -70 10 -100 3 -30 8 -80 11 -110 3 -30 7 -68 9 -85 2 -16 6 -66 10
-110 3 -44 8 -96 10 -115 3 -19 7 -66 11 -105 3 -38 7 -81 9 -95 2 -14 7 -61
10 -105 4 -44 8 -91 10 -105 2 -14 6 -59 10 -100 4 -41 8 -89 10 -105 2 -17 6
-68 10 -115 4 -47 8 -92 10 -100 2 -8 7 -51 10 -95 4 -44 8 -93 10 -110 1 -16
6 -61 9 -100 4 -38 9 -83 11 -100 2 -16 6 -66 10 -110 3 -44 8 -93 10 -110 3
-16 7 -64 10 -105 3 -41 8 -86 10 -100 2 -14 7 -61 11 -105 3 -44 8 -88 10
-98 2 -10 6 -55 9 -100 3 -45 7 -98 10 -117 3 -19 7 -64 10 -100 3 -36 8 -81
10 -100 2 -19 7 -64 10 -100 3 -36 8 -85 10 -110 3 -25 7 -67 10 -95 14 -156
16 -183 20 -215 2 -19 7 -64 10 -100 4 -36 8 -81 10 -100 4 -41 15 -158 20
-215 6 -72 17 -180 20 -205 2 -14 7 -59 10 -100 3 -41 8 -88 9 -105 2 -16 7
-68 11 -115 4 -47 9 -92 10 -101 2 -8 6 -51 9 -95 4 -43 8 -95 11 -114 2 -19
7 -66 10 -105 3 -38 7 -86 10 -105 5 -44 14 -128 20 -200 2 -30 6 -75 9 -100
7 -62 16 -155 21 -215 13 -139 17 -182 20 -204 3 -14 7 -63 10 -110 4 -47 8
-96 10 -109 2 -12 7 -57 10 -100 4 -42 8 -88 10 -102 2 -14 7 -59 10 -100 9
-116 48 -179 131 -210 43 -17 117 -14 155 6 19 9 245 228 503 485 373 373 476
471 505 479 24 6 1264 10 3649 10 3536 0 3614 0 3650 -19 22 -11 293 -275 634
-616 569 -569 598 -596 630 -593 31 3 33 5 34 43 1 22 4 65 8 95 3 30 8 80 11
110 3 30 7 75 10 100 2 25 7 72 10 105 6 62 14 143 20 205 2 19 6 64 10 100 3
36 8 85 10 110 2 25 6 72 9 105 3 33 8 78 11 100 2 22 7 72 10 110 3 39 10
108 15 155 5 47 12 117 15 155 3 39 8 88 11 110 2 22 7 67 10 100 5 63 10 111
19 210 3 33 8 85 11 115 2 30 7 69 9 85 2 17 7 66 10 110 4 44 8 91 10 105 2
14 7 61 11 105 4 44 8 91 9 105 2 14 6 61 10 105 3 44 8 91 10 105 2 14 6 54
10 90 3 36 8 85 10 110 2 25 7 74 10 110 4 36 8 81 10 100 2 19 6 64 10 100 3
36 8 83 10 105 2 22 7 74 10 115 3 41 8 85 10 96 2 12 6 61 10 110 4 49 9 98
11 108 2 10 6 51 9 90 3 39 8 91 11 116 3 25 7 70 10 100 2 30 6 74 9 97 3 24
7 73 10 110 3 38 7 82 10 98 2 17 7 66 11 110 3 44 8 91 9 105 1 14 6 59 9
100 4 41 9 86 11 100 2 14 7 61 10 105 4 44 9 94 11 110 2 17 6 64 9 105 4 41
8 86 10 100 2 14 7 61 10 105 3 44 10 114 15 155 5 41 12 111 15 155 3 44 8
91 10 105 2 14 7 61 10 105 3 43 8 93 10 110 2 16 7 62 10 100 7 81 13 143 20
200 3 22 7 69 10 105 3 36 10 108 15 160 5 52 12 124 15 160 3 36 8 81 10 100
3 19 7 62 10 95 9 119 16 191 21 225 3 19 7 62 9 95 3 33 7 83 10 110 3 28 8
74 10 103 3 28 8 78 11 110 3 31 7 73 9 92 12 135 17 188 20 210 2 14 7 59 10
100 3 41 8 89 10 105 2 17 7 66 10 110 4 44 8 94 10 110 2 17 7 62 10 100 4
39 8 84 10 100 2 17 6 65 10 108 3 43 8 86 10 95 1 9 6 53 9 97 4 44 9 98 11
120 10 85 14 133 20 205 3 41 8 91 11 110 3 19 7 64 10 100 2 36 7 82 9 103 3
20 7 68 10 105 3 37 8 83 10 102 2 19 7 64 10 100 3 36 8 83 10 105 2 22 7 70
10 106 7 72 11 112 20 204 3 33 8 85 10 115 12 119 15 157 20 200 3 25 8 70
10 100 5 58 14 151 20 210 3 32 6 63 20 210 3 25 7 70 10 100 3 30 7 75 10
100 3 25 7 79 10 120 3 41 8 86 10 100 2 14 6 57 10 95 3 39 8 88 10 110 6 57
15 151 20 215 3 30 7 73 10 95 2 22 7 74 10 115 4 41 8 86 11 100 2 14 7 61
10 105 3 44 8 91 10 105 8 64 18 190 18 241 0 69 -29 120 -93 160 -56 36 -107
37 -256 6 -11 -3 -40 -8 -65 -12 -25 -4 -54 -9 -65 -11 -29 -6 -235 -43 -270
-49 -76 -14 -255 -47 -300 -56 -27 -5 -66 -12 -85 -15 -19 -3 -80 -13 -135
-24 -55 -10 -113 -21 -130 -24 -16 -2 -56 -10 -87 -16 -31 -6 -70 -13 -85 -15
-15 -2 -41 -7 -58 -10 -16 -3 -88 -17 -160 -30 -130 -25 -251 -46 -395 -71
-36 -6 -55 -10 -100 -19 -24 -5 -125 -23 -165 -29 -34 -6 -363 -66 -505 -93
-74 -14 -145 -27 -157 -29 -13 -2 -35 -6 -50 -9 -129 -23 -159 -27 -192 -22
-46 6 -676 320 -714 355 -85 80 -71 226 28 294 39 27 77 36 224 53 30 4 61 8
70 10 9 1 45 6 81 10 36 4 72 9 80 10 8 2 38 6 65 9 78 11 105 14 185 26 41 5
98 12 125 15 28 3 77 10 110 15 33 5 83 12 110 15 28 4 61 8 75 10 14 2 45 6
70 10 25 3 77 10 115 15 66 9 119 16 190 25 17 2 64 9 105 14 41 6 95 13 120
16 25 4 59 8 75 10 65 9 193 26 230 30 37 4 99 14 135 20 8 1 44 6 80 10 36 4
72 9 80 10 8 2 38 6 65 9 28 3 82 11 120 16 39 5 90 12 115 15 25 4 59 8 75
10 17 3 84 11 150 20 66 8 131 17 145 19 14 3 48 7 75 10 28 4 61 8 75 11 14
2 48 7 75 10 28 3 64 8 80 10 121 17 197 27 240 31 28 2 57 7 66 10 9 2 39 7
65 9 123 12 169 28 210 72 55 60 69 145 35 218 -11 22 -111 186 -224 365 -185
295 -209 328 -252 355 l-48 30 -5460 0 c-4098 0 -5469 -3 -5498 -11z m5586
-5099 c36 -36 55 -79 174 -385 l134 -345 2 -2130 c1 -1171 -2 -2152 -7 -2180
-12 -69 -33 -95 -180 -220 -235 -200 -249 -201 -487 -26 -166 122 -223 176
-237 223 -12 41 -12 4312 0 4348 8 23 54 124 97 216 10 22 19 43 19 47 0 3 18
45 40 92 22 48 61 135 86 194 60 136 77 165 120 191 43 27 119 39 164 26 19
-6 53 -29 75 -51z"/>
<path d="M6435 30765 c-22 -6 -51 -17 -64 -25 -55 -29 -54 -27 -399 -625 -214
-372 -267 -462 -284 -487 -11 -16 -16 -28 -12 -28 4 0 0 -8 -8 -17 -8 -10 -26
-38 -40 -63 -13 -25 -34 -61 -45 -80 -39 -67 -396 -685 -413 -715 -10 -16 -57
-97 -105 -180 -48 -82 -97 -168 -109 -190 -12 -22 -66 -115 -120 -208 -53 -92
-103 -185 -111 -207 -28 -79 1 -196 61 -251 26 -23 87 -62 184 -117 34 -19
279 -161 555 -320 72 -42 186 -108 255 -147 69 -40 213 -123 320 -185 107 -62
220 -126 250 -143 30 -16 60 -33 65 -37 6 -4 26 -17 45 -28 19 -10 100 -57
180 -104 80 -46 152 -87 160 -91 8 -4 29 -16 45 -26 30 -18 300 -175 410 -238
33 -18 67 -38 75 -43 14 -9 701 -405 925 -534 55 -31 107 -61 115 -66 67 -41
151 -90 156 -90 3 0 30 -16 60 -35 30 -19 56 -35 58 -35 3 0 37 -19 78 -43 40
-24 93 -55 118 -69 25 -14 133 -76 240 -138 107 -62 209 -121 225 -130 17 -10
73 -42 125 -72 52 -30 119 -69 148 -86 29 -18 55 -32 58 -32 2 0 23 -12 46
-26 23 -15 116 -70 207 -122 92 -52 252 -144 356 -205 105 -60 205 -118 223
-128 18 -11 103 -60 188 -110 85 -49 176 -102 202 -116 26 -14 99 -56 162 -93
63 -37 189 -110 280 -162 91 -52 210 -121 265 -153 55 -32 233 -135 395 -228
162 -94 309 -178 325 -188 17 -9 86 -49 155 -89 69 -39 130 -75 135 -79 6 -4
41 -25 78 -45 l69 -38 -7 64 c-3 34 -10 106 -16 158 -5 52 -11 120 -14 150 -9
113 -15 176 -20 225 -12 99 -14 121 -20 185 -3 36 -8 81 -10 100 -2 19 -7 69
-10 110 -3 41 -8 86 -10 100 -2 14 -7 61 -10 105 -4 44 -8 94 -10 110 -2 17
-7 56 -10 88 -3 31 -7 81 -10 110 -3 28 -12 120 -20 202 -8 83 -17 182 -20
220 -4 39 -8 81 -10 95 -2 14 -7 57 -10 95 -4 39 -8 86 -11 105 -2 19 -6 64
-9 100 -6 70 -13 144 -20 200 -2 19 -7 69 -10 110 -3 41 -8 86 -10 100 -3 14
-7 60 -10 103 -3 43 -7 92 -10 110 -4 30 -8 73 -20 205 -3 31 -8 77 -11 101
-3 25 -7 70 -9 100 -3 31 -7 74 -9 96 -3 22 -8 69 -11 105 -10 112 -14 154
-19 200 -3 25 -8 72 -11 105 -3 33 -7 80 -10 105 -3 25 -7 72 -10 105 -4 33
-8 78 -10 100 -2 22 -7 74 -10 115 -5 54 -12 80 -25 93 -11 9 -21 17 -23 17
-3 0 -67 37 -143 81 -77 45 -163 95 -192 110 -28 16 -70 40 -92 54 -22 14 -41
25 -44 25 -2 0 -33 17 -67 38 -35 22 -84 50 -109 64 -25 14 -117 67 -205 118
-88 51 -173 101 -190 110 -56 32 -230 133 -260 151 -16 10 -48 28 -70 40 -22
12 -88 50 -148 85 -59 35 -112 64 -117 64 -6 0 -10 4 -10 10 0 5 -3 9 -7 8 -5
-1 -19 5 -33 14 -22 13 -623 361 -720 416 -19 10 -145 83 -280 162 -135 78
-263 152 -285 165 -22 12 -56 31 -75 42 -19 11 -62 36 -95 55 -33 19 -121 70
-195 113 -74 43 -178 103 -230 133 -415 239 -955 551 -1049 606 -62 36 -115
66 -117 66 -2 0 -44 25 -94 55 -50 30 -92 55 -94 55 -2 0 -82 46 -177 101
-404 235 -568 328 -590 334 -48 12 -95 12 -134 0z"/>
<path d="M30935 30764 c-22 -6 -107 -51 -190 -99 -82 -48 -168 -97 -190 -110
-56 -32 -392 -226 -717 -414 -86 -50 -172 -99 -190 -109 -18 -11 -92 -53 -165
-95 -72 -42 -147 -85 -165 -96 -32 -18 -199 -114 -475 -274 -290 -168 -398
-230 -427 -247 -17 -9 -233 -134 -481 -277 -614 -354 -761 -440 -894 -517 -62
-36 -115 -66 -116 -66 -2 0 -60 -34 -130 -75 -69 -41 -128 -75 -130 -75 -2 0
-39 -21 -82 -48 -43 -26 -103 -60 -133 -76 -30 -16 -57 -32 -60 -35 -3 -3 -19
-13 -35 -22 -17 -9 -192 -109 -390 -224 -198 -114 -373 -215 -390 -225 -174
-99 -352 -203 -359 -211 -11 -10 -13 -19 -21 -104 -3 -33 -8 -76 -10 -95 -4
-33 -9 -86 -20 -210 -3 -30 -7 -71 -10 -90 -2 -19 -7 -69 -10 -110 -3 -41 -8
-86 -10 -100 -2 -14 -7 -62 -10 -107 -3 -45 -7 -90 -9 -100 -2 -10 -7 -56 -11
-103 -3 -47 -8 -96 -10 -110 -2 -14 -6 -56 -10 -95 -3 -38 -8 -86 -10 -105 -2
-19 -6 -62 -10 -95 -5 -63 -11 -121 -19 -195 -3 -25 -8 -79 -11 -120 -7 -81
-10 -106 -24 -250 -6 -52 -13 -124 -16 -160 -7 -72 -13 -133 -20 -200 -3 -25
-7 -74 -10 -110 -3 -36 -8 -81 -10 -100 -2 -19 -6 -66 -10 -105 -3 -38 -8 -90
-11 -115 -11 -106 -14 -129 -19 -195 -4 -38 -8 -81 -10 -95 -2 -14 -7 -59 -10
-100 -10 -115 -13 -141 -19 -195 -3 -27 -8 -84 -11 -125 -3 -41 -8 -86 -10
-100 -2 -14 -7 -56 -10 -95 -3 -38 -7 -86 -10 -105 -2 -19 -7 -60 -9 -90 -16
-176 -27 -288 -31 -315 -10 -78 -15 -176 -8 -172 18 10 211 121 243 140 19 11
49 28 65 38 17 10 46 26 65 37 19 10 251 144 515 297 464 269 506 293 578 334
18 10 91 52 163 93 71 42 260 151 419 243 160 92 310 179 335 193 25 15 61 36
81 47 20 11 102 58 183 105 80 47 154 90 164 95 10 6 122 71 250 145 128 74
249 144 270 156 20 11 172 98 336 193 165 96 314 181 330 191 17 10 204 118
416 240 212 122 399 230 415 239 17 9 49 29 72 44 24 15 44 27 46 27 2 0 71
39 153 86 82 48 165 96 184 106 49 28 277 161 320 187 19 11 42 24 50 28 8 4
47 26 85 48 68 41 124 72 215 123 25 13 52 31 61 38 8 8 18 14 21 14 4 0 41
20 82 45 42 25 79 45 81 45 3 0 24 12 48 27 37 24 66 40 195 114 18 11 93 54
165 96 202 117 389 224 422 243 31 18 266 153 313 181 15 9 135 78 267 154
285 164 303 176 332 206 52 57 74 167 47 241 -7 21 -48 98 -90 171 -42 72 -85
147 -96 165 -10 17 -26 47 -37 65 -112 194 -207 358 -221 382 -9 17 -48 84
-87 150 -38 66 -72 127 -76 135 -4 8 -16 29 -27 45 -10 17 -25 41 -32 55 -8
14 -67 117 -133 230 -65 113 -192 333 -283 490 -90 157 -179 310 -197 340 -18
30 -44 75 -57 100 -14 25 -58 101 -98 170 -40 69 -84 145 -98 170 -43 77 -72
109 -125 134 -62 30 -127 37 -182 20z"/>
<path d="M314 28413 c-27 -47 -61 -106 -76 -132 -15 -25 -30 -52 -34 -60 -4
-7 -51 -90 -106 -183 -54 -93 -98 -172 -98 -177 0 -31 225 -178 540 -353 19
-11 51 -29 70 -40 19 -11 141 -81 270 -155 129 -75 255 -148 280 -163 25 -15
65 -39 90 -53 25 -13 191 -109 370 -212 179 -103 339 -196 355 -205 17 -10 71
-41 120 -70 50 -29 108 -62 130 -75 44 -25 464 -268 535 -309 114 -67 264
-137 297 -139 31 -2 38 2 57 34 11 20 67 117 124 215 57 98 108 186 113 194
49 81 99 173 99 184 0 31 -147 127 -545 356 -99 57 -218 126 -265 153 -85 50
-116 68 -187 108 -21 12 -153 88 -293 169 -140 81 -272 157 -292 169 -113 63
-593 341 -696 402 -45 27 -84 49 -86 49 -2 0 -33 17 -67 38 -35 22 -84 50
-109 64 -25 14 -105 60 -179 103 -138 80 -296 158 -342 169 -24 5 -29 -1 -75
-81z"/>
<path d="M37039 28466 c-69 -30 -216 -108 -309 -165 -19 -11 -41 -24 -49 -28
-8 -3 -64 -35 -125 -71 -61 -36 -124 -72 -141 -82 -119 -68 -525 -302 -880
-507 -143 -83 -278 -161 -300 -173 -22 -12 -75 -43 -119 -69 -43 -25 -94 -55
-115 -67 -20 -11 -124 -71 -231 -133 -107 -63 -220 -127 -250 -144 -30 -16
-66 -38 -80 -47 -14 -9 -60 -37 -103 -61 -43 -24 -88 -50 -100 -56 -58 -33
-182 -130 -185 -144 -1 -9 17 -49 41 -90 24 -41 46 -81 50 -89 4 -8 15 -28 25
-45 24 -39 159 -270 184 -315 56 -100 59 -102 92 -96 17 3 67 23 111 45 90 43
195 102 710 401 88 51 180 104 205 117 25 14 70 40 100 58 62 37 871 504 940
543 25 14 126 72 225 130 99 57 227 131 285 165 329 189 463 277 476 311 3 7
-9 38 -27 67 -17 30 -39 68 -49 84 -9 17 -70 122 -135 235 -65 113 -123 214
-129 225 -11 20 -26 35 -36 35 -3 0 -39 -15 -81 -34z"/>
<path d="M12970 20402 c0 -7 -4 -12 -10 -12 -5 0 -80 -46 -167 -103 -220 -143
-370 -240 -391 -252 -9 -6 -69 -44 -132 -86 -161 -105 -418 -272 -438 -284 -9
-5 -42 -26 -72 -46 -51 -34 -135 -89 -395 -256 -55 -36 -150 -97 -210 -136
-61 -40 -167 -108 -235 -152 -69 -43 -126 -83 -128 -87 -2 -4 -8 -8 -12 -8 -8
0 -80 -46 -425 -271 -144 -94 -802 -519 -1160 -750 -181 -117 -379 -245 -440
-285 -60 -39 -166 -108 -235 -152 -69 -45 -130 -86 -137 -91 -7 -6 -14 -11
-17 -11 -3 0 -24 -13 -48 -29 -39 -26 -291 -189 -463 -299 -38 -25 -110 -71
-158 -104 -49 -32 -90 -58 -93 -58 -3 0 -10 -5 -17 -10 -7 -6 -61 -42 -122
-81 -60 -39 -149 -97 -197 -128 -48 -31 -160 -103 -250 -161 -89 -58 -217
-141 -285 -185 -68 -44 -199 -129 -291 -188 -92 -60 -392 -254 -667 -432 -275
-178 -575 -372 -668 -432 -92 -59 -231 -150 -310 -201 -78 -51 -186 -121 -240
-155 -53 -34 -161 -104 -240 -155 -78 -51 -178 -116 -222 -144 -44 -28 -123
-79 -175 -113 -52 -34 -147 -96 -210 -137 -63 -40 -201 -130 -307 -198 -106
-69 -200 -130 -210 -135 -10 -6 -72 -46 -138 -89 -66 -43 -142 -93 -170 -111
-27 -18 -102 -66 -165 -107 -63 -41 -187 -121 -275 -178 -161 -103 -327 -211
-355 -230 -8 -6 -51 -34 -95 -62 -287 -184 -300 -194 -330 -250 -24 -43 -29
-65 -29 -118 0 -37 6 -78 14 -94 16 -31 26 -38 160 -108 210 -109 362 -189
445 -233 50 -26 142 -74 205 -107 63 -34 147 -78 185 -98 39 -20 179 -94 312
-164 175 -92 248 -136 266 -159 66 -87 203 -116 308 -65 30 15 90 43 134 63
88 41 186 87 340 160 55 26 127 60 160 75 33 15 101 47 150 70 50 23 122 57
160 75 39 18 115 54 170 80 55 26 125 58 155 72 30 14 110 52 178 84 68 33
125 59 126 59 2 0 68 31 147 69 79 37 169 80 199 94 30 14 100 46 155 72 55
26 127 60 160 75 33 15 101 47 150 70 50 23 124 58 165 77 41 19 116 54 165
78 50 23 117 55 150 70 33 15 125 59 204 96 79 38 145 69 147 69 2 0 61 27
131 61 71 34 153 72 183 86 30 14 102 48 160 75 58 28 130 61 160 75 30 14 98
46 150 70 127 60 237 112 402 189 76 35 146 68 155 73 10 5 50 24 88 42 70 32
178 82 335 157 47 22 119 55 160 75 41 19 113 52 160 75 157 73 244 115 320
149 75 35 107 50 295 138 55 26 210 99 345 162 135 64 296 140 359 169 62 30
115 54 117 54 1 0 60 28 131 61 136 65 260 123 358 169 33 15 118 55 189 89
70 33 130 61 132 61 1 0 78 36 170 80 91 44 168 80 169 80 2 0 54 24 116 54
190 89 270 127 359 168 47 22 119 56 160 75 41 20 102 48 135 63 33 15 103 48
155 73 52 24 169 79 260 122 91 43 208 98 260 122 52 25 122 58 155 73 33 15
105 49 160 75 55 26 133 62 173 81 39 18 72 34 72 36 0 2 -12 37 -26 78 -26
78 -59 222 -68 300 -3 25 -8 70 -11 100 -3 30 -8 73 -10 95 -2 22 -7 72 -10
110 -3 39 -8 86 -10 105 -3 19 -7 61 -10 93 -6 72 -15 161 -20 207 -2 19 -6
67 -10 105 -3 39 -8 88 -10 110 -2 22 -7 65 -10 95 -3 30 -7 75 -10 100 -6 67
-14 148 -20 215 -3 33 -7 76 -10 95 -2 19 -7 68 -10 109 -4 41 -8 88 -10 105
-3 17 -7 60 -10 96 -4 36 -8 79 -10 95 -2 17 -6 66 -9 110 -4 44 -9 96 -12
115 -3 19 -7 58 -9 86 -2 28 -6 75 -10 105 -3 30 -8 79 -11 109 -3 30 -7 75
-9 100 -3 25 -7 72 -10 105 -4 33 -8 76 -10 95 -5 36 -12 115 -20 209 -3 30
-7 73 -10 95 -6 55 -13 136 -20 221 -4 39 -8 80 -10 93 -2 12 -7 62 -10 110
-4 48 -11 91 -16 97 -6 5 -9 4 -9 -3z"/>
<path d="M24519 20407 c-4 -11 -9 -55 -14 -117 -3 -41 -8 -86 -10 -100 -3 -14
-7 -60 -10 -103 -4 -43 -8 -86 -10 -95 -1 -10 -6 -55 -10 -102 -3 -47 -8 -96
-10 -110 -2 -14 -6 -59 -10 -100 -4 -41 -8 -86 -10 -100 -2 -14 -6 -59 -10
-100 -4 -41 -8 -86 -10 -100 -2 -14 -7 -59 -10 -100 -20 -230 -27 -295 -30
-320 -2 -14 -7 -59 -10 -100 -3 -41 -7 -86 -10 -100 -2 -14 -7 -59 -10 -100
-4 -41 -8 -86 -10 -100 -2 -14 -6 -59 -10 -100 -3 -41 -7 -88 -9 -105 -3 -16
-7 -66 -11 -110 -4 -44 -8 -91 -10 -105 -2 -14 -7 -61 -10 -104 -4 -44 -8 -87
-10 -95 -1 -9 -6 -54 -10 -101 -4 -47 -8 -92 -10 -100 -2 -8 -6 -58 -10 -110
-4 -52 -9 -103 -11 -113 -2 -10 -6 -53 -9 -95 -3 -42 -8 -88 -10 -102 -2 -14
-7 -54 -10 -90 -3 -36 -8 -83 -10 -105 -2 -22 -7 -69 -10 -105 -6 -67 -13
-122 -21 -175 -9 -57 -47 -200 -65 -248 -11 -26 -19 -50 -19 -52 0 -5 44 -26
255 -125 44 -20 118 -55 165 -78 47 -22 119 -55 160 -74 96 -45 213 -100 320
-150 47 -23 117 -55 155 -73 39 -18 115 -54 170 -80 55 -26 127 -60 160 -75
71 -33 197 -92 315 -148 76 -36 252 -118 475 -222 80 -37 173 -81 340 -160 50
-23 158 -74 240 -112 83 -39 210 -99 284 -134 73 -35 135 -64 137 -64 1 0 68
-31 149 -70 81 -38 148 -70 150 -70 1 0 61 -27 131 -61 71 -34 161 -76 199
-94 39 -18 183 -85 320 -150 138 -64 277 -130 310 -145 82 -38 394 -184 480
-225 39 -18 111 -52 160 -75 50 -23 200 -94 335 -157 135 -64 272 -128 305
-143 33 -15 110 -51 170 -80 61 -29 137 -65 170 -80 93 -43 552 -258 630 -295
226 -107 328 -155 330 -155 1 0 61 -28 131 -61 71 -34 156 -74 189 -89 96 -44
210 -98 354 -166 73 -35 135 -64 136 -64 2 0 65 -30 141 -66 77 -36 159 -75
184 -86 25 -12 101 -47 169 -79 68 -33 125 -59 126 -59 2 0 63 -29 137 -64
127 -61 547 -258 673 -316 33 -15 110 -51 170 -80 61 -29 137 -65 170 -80 61
-28 224 -104 305 -143 97 -46 211 -19 294 68 28 29 85 65 181 115 77 40 172
89 210 110 39 20 117 62 175 92 58 31 155 81 215 113 213 112 301 158 370 195
105 56 367 193 392 205 30 14 57 103 49 162 -3 25 -18 68 -33 95 -32 58 17 25
-870 598 -156 100 -236 152 -533 345 -36 23 -105 68 -155 100 -49 32 -130 85
-179 117 -48 32 -90 58 -92 58 -2 0 -36 22 -76 48 -40 27 -107 71 -148 97 -41
27 -133 86 -205 133 -71 47 -152 99 -180 117 -27 18 -108 70 -180 116 -234
152 -484 314 -502 324 -9 6 -23 15 -29 20 -7 6 -43 29 -81 52 -37 24 -146 93
-241 155 -94 62 -214 140 -265 172 -117 76 -215 139 -397 257 -318 207 -391
255 -415 269 -13 8 -160 103 -325 210 -474 308 -599 389 -690 447 -161 103
-278 179 -823 533 -301 195 -555 360 -564 365 -9 6 -62 40 -117 76 -56 36
-126 81 -156 101 -89 56 -178 114 -480 310 -157 102 -334 217 -395 256 -141
90 -272 175 -462 298 -84 55 -236 153 -338 219 -102 66 -221 143 -263 171 -43
28 -181 117 -308 198 -261 169 -424 275 -557 361 -50 33 -220 143 -377 244
-511 331 -559 361 -762 494 -82 53 -148 95 -149 94z"/>
<path d="M15062 17640 c-41 -19 -912 -882 -936 -928 -49 -95 -4 -226 92 -269
34 -15 396 -16 4507 -17 2459 -1 4490 2 4515 6 52 9 106 49 133 99 25 43 27
132 4 175 -20 39 -890 909 -931 932 -29 16 -266 17 -3689 18 -3404 1 -3660 0
-3695 -16z"/>
<path d="M17158 14213 c-31 -33 -54 -96 -62 -173 -4 -30 -9 -71 -12 -90 -2
-20 -6 -60 -9 -90 -4 -53 -11 -114 -20 -190 -2 -19 -9 -82 -15 -140 -6 -58
-13 -124 -15 -147 -3 -24 -7 -62 -10 -85 -2 -24 -7 -70 -10 -103 -4 -33 -8
-71 -11 -85 -21 -132 12 -295 69 -335 19 -13 210 -15 1727 -15 1930 0 1734
-10 1776 87 28 63 35 148 23 263 -4 41 -11 102 -14 135 -9 80 -14 133 -20 175
-2 19 -7 62 -10 95 -3 33 -10 101 -15 150 -6 50 -13 115 -16 145 -3 30 -7 66
-9 80 -2 14 -7 52 -10 85 -12 139 -32 202 -74 244 l-21 21 -1608 0 -1608 0
-26 -27z"/>
<path d="M17529 7246 c-373 -98 -585 -457 -536 -906 4 -36 12 -83 17 -105 6
-22 12 -47 14 -55 2 -8 13 -38 24 -66 113 -285 368 -454 690 -456 61 -1 157
11 188 22 13 5 24 7 24 5 0 -3 30 6 66 20 243 91 407 298 457 575 17 93 21
275 7 336 -5 21 -11 54 -15 72 -15 89 -79 229 -138 306 -145 187 -333 275
-591 274 -93 0 -141 -5 -207 -22z m288 -80 c243 -21 436 -182 511 -428 27 -88
35 -141 37 -271 4 -297 -116 -530 -327 -635 -109 -54 -191 -71 -326 -67 -270
8 -461 143 -556 396 -13 35 -24 67 -24 72 0 4 -6 33 -12 64 -16 73 -16 252 -1
328 7 33 14 71 17 85 8 41 64 168 80 181 8 6 14 17 14 24 0 7 29 42 64 78 101
103 223 160 371 174 33 3 62 7 63 9 2 1 9 1 15 -1 7 -2 40 -6 74 -9z"/>
<path d="M28995 7254 c-234 -47 -425 -190 -518 -389 -120 -256 -109 -606 27
-849 92 -163 266 -293 451 -334 205 -46 457 -23 640 59 42 19 149 81 155 90 8
12 6 547 -2 555 -6 5 -280 8 -405 5 -20 -1 -23 -6 -23 -41 0 -25 5 -40 13 -41
6 -1 80 -2 162 -3 l150 -1 3 -212 2 -211 -46 -26 c-200 -112 -501 -134 -703
-52 -155 63 -272 185 -335 351 -83 219 -67 511 40 702 82 148 244 264 414 297
85 16 261 18 365 4 89 -11 232 -54 237 -70 3 -7 6 -55 7 -107 5 -167 10 -181
72 -181 l39 0 -2 181 -3 181 -49 19 c-51 19 -184 53 -246 63 -19 3 -46 8 -60
12 -54 13 -315 12 -385 -2z"/>
<path d="M7270 7224 c0 -17 6 -36 13 -42 7 -6 49 -12 92 -14 l80 -3 3 -697 2
-698 -22 -1 c-155 -6 -168 -11 -168 -63 l0 -31 240 0 c258 0 262 1 252 51 -6
33 -10 34 -97 38 -42 2 -79 7 -82 10 -4 4 -8 577 -4 644 1 9 106 12 491 12
l490 0 0 -330 0 -330 -22 -1 c-13 -1 -50 -2 -82 -4 -44 -1 -63 -7 -73 -20 -14
-20 -18 -64 -5 -66 4 -1 112 -2 240 -3 157 -1 236 2 243 10 9 12 4 53 -9 66
-7 7 -74 14 -152 17 l-25 1 2 672 c1 370 2 685 2 699 1 25 4 27 49 27 125 1
133 4 137 51 1 17 0 32 -4 32 -3 1 -116 2 -249 3 l-244 1 6 -34 c3 -19 9 -38
13 -42 4 -4 44 -9 88 -11 l80 -3 3 -323 2 -322 -492 2 -491 3 0 311 c0 172 4
317 7 323 4 6 37 11 79 11 79 0 91 5 99 36 12 47 4 49 -252 49 l-240 0 0 -31z"/>
<path d="M10255 7250 c-1 -3 -19 -45 -39 -95 -20 -49 -41 -99 -46 -110 -5 -11
-41 -99 -80 -195 -114 -280 -197 -483 -271 -662 -92 -222 -92 -221 -95 -233
-6 -22 -52 -126 -58 -132 -3 -3 -6 -14 -6 -24 0 -25 -13 -31 -82 -34 -33 -2
-64 -7 -68 -12 -5 -4 -10 -24 -12 -43 l-3 -35 214 0 215 0 1 28 c3 45 -15 59
-80 61 -32 1 -60 6 -62 12 -3 10 143 394 156 407 8 8 749 12 758 4 5 -6 163
-409 163 -418 0 -3 -23 -5 -51 -5 -66 1 -85 -7 -91 -37 -10 -51 -5 -52 209
-52 109 0 203 4 210 8 13 8 10 54 -5 69 -8 8 -45 13 -134 17 -10 1 -18 7 -18
13 0 10 -89 233 -145 363 -7 17 -38 93 -69 170 -31 77 -61 149 -66 160 -5 11
-64 153 -130 315 -66 162 -136 333 -156 380 l-35 85 -60 0 c-33 0 -62 -2 -64
-5z m231 -536 c91 -225 168 -415 171 -421 4 -10 -67 -13 -336 -13 -188 0 -341
2 -341 5 0 6 130 336 150 380 39 89 70 165 70 172 0 5 8 27 19 49 10 21 36 85
57 140 22 56 40 101 42 99 1 -1 77 -186 168 -411z"/>
<path d="M11774 7251 c-9 -9 -3 -48 9 -64 9 -12 31 -17 95 -18 68 -2 82 -5 83
-18 4 -83 1 -1372 -3 -1376 -3 -3 -41 -7 -84 -9 -86 -5 -105 -17 -100 -64 l3
-27 564 0 564 0 0 165 0 165 -39 -2 c-21 0 -43 -6 -48 -11 -10 -10 -16 -53
-19 -137 0 -27 -3 -57 -5 -65 -3 -13 -50 -15 -353 -15 -192 0 -353 3 -357 7
-5 6 -9 460 -5 614 l1 32 283 0 c155 0 296 1 312 1 29 1 31 3 31 46 0 25 -3
45 -6 46 -3 0 -143 1 -312 1 -170 1 -308 4 -309 7 -1 8 -1 603 0 619 1 9 80
12 359 12 l357 0 3 -62 c3 -81 11 -148 18 -159 3 -5 25 -9 48 -9 l43 0 1 160
c1 118 -2 160 -11 161 -34 4 -1119 3 -1123 0z"/>
<path d="M13980 7225 c0 -49 9 -54 110 -59 52 -2 95 -5 95 -5 4 -30 -4 -1042
-9 -1076 -13 -99 -59 -193 -120 -248 -85 -75 -199 -95 -368 -62 -39 7 -48 -1
-62 -57 -6 -25 -3 -27 47 -39 249 -61 465 19 560 208 62 122 61 108 65 716 2
306 6 557 10 558 4 1 40 2 80 4 82 3 102 14 102 59 l0 31 -255 0 -255 0 0 -30z"/>
<path d="M15140 7224 c0 -43 15 -53 90 -54 36 -1 72 -4 81 -6 15 -4 17 -66 16
-695 0 -426 -4 -692 -10 -696 -5 -3 -38 -7 -72 -8 -97 -5 -107 -10 -103 -53
l3 -37 562 0 c370 0 564 3 566 10 3 9 1 300 -2 317 -2 12 -72 1 -86 -13 -9 -9
-15 -46 -17 -111 -2 -54 -7 -99 -13 -101 -5 -2 -167 -3 -360 -3 l-350 1 0 322
c0 220 3 324 10 327 6 2 141 4 301 4 159 0 295 1 302 1 8 1 12 17 12 46 0 29
-4 45 -12 46 -7 0 -141 1 -298 1 -157 0 -292 1 -300 4 -13 3 -15 46 -15 316
l0 313 358 3 c282 2 357 0 358 -10 0 -7 3 -53 5 -102 3 -50 10 -96 16 -103 6
-7 29 -13 52 -13 l41 0 0 160 c0 88 -2 161 -5 161 -3 1 -258 2 -567 3 l-563 1
0 -31z"/>
<path d="M19180 7224 c0 -44 15 -52 95 -55 39 -1 75 -4 82 -6 8 -3 11 -183 11
-699 -1 -629 -2 -694 -17 -695 -159 -7 -171 -12 -171 -63 l0 -31 245 0 245 0
0 30 c0 49 -12 58 -81 60 -35 1 -73 3 -85 4 -21 1 -21 3 -20 333 l1 333 60 1
c102 1 118 -7 239 -131 244 -248 492 -502 508 -520 16 -20 15 -20 -73 -22
-101 -2 -119 -10 -119 -57 l0 -31 228 1 c125 1 233 2 240 3 16 1 16 42 -1 65
-9 12 -28 18 -66 19 l-53 2 -167 174 c-91 95 -188 196 -215 225 -170 180 -307
316 -318 316 -8 0 58 73 147 163 88 90 239 244 335 343 l175 179 55 4 c30 2
58 5 63 8 4 2 7 21 7 41 l0 37 -230 0 -230 0 0 -38 c0 -21 6 -40 13 -42 6 -3
47 -6 90 -8 43 -1 77 -7 77 -12 -1 -16 -570 -598 -603 -617 -13 -7 -61 -11
-123 -9 l-41 1 0 315 c0 280 2 315 16 319 9 2 45 5 80 5 75 2 91 12 91 55 l0
31 -245 0 -245 0 0 -31z"/>
<path d="M21210 7225 c0 -39 16 -55 55 -55 66 0 68 -3 110 -138 22 -70 40
-129 41 -132 0 -3 3 -12 7 -20 3 -8 24 -76 47 -150 23 -74 52 -164 63 -200 12
-36 22 -68 23 -72 1 -5 3 -10 4 -13 1 -3 3 -8 4 -12 1 -5 19 -62 40 -128 21
-66 71 -226 112 -355 41 -129 78 -244 83 -256 8 -17 17 -21 55 -19 25 1 48 4
51 7 3 2 34 90 69 194 101 297 291 850 326 949 17 50 33 97 35 105 2 8 12 40
23 70 11 30 22 63 24 73 2 15 87 -210 103 -273 2 -8 56 -168 120 -355 64 -187
149 -437 189 -555 l73 -214 51 -2 c50 -1 50 -1 66 40 8 23 19 57 24 76 6 19
39 127 75 240 36 113 70 221 75 240 6 19 28 91 50 160 22 69 63 199 92 290 28
91 71 228 96 306 l44 140 47 3 c59 3 75 16 71 55 l-3 31 -207 0 -208 1 0 -37
c0 -44 9 -49 95 -49 35 0 67 -5 70 -10 5 -8 -158 -568 -195 -670 -5 -14 -26
-79 -46 -145 -41 -138 -73 -243 -79 -265 -3 -8 -19 -63 -37 -122 l-32 -107
-21 72 c-12 40 -47 144 -77 232 -82 234 -274 792 -318 923 -21 62 -41 116 -44
119 -3 4 -6 15 -6 25 0 20 -37 39 -66 33 -11 -2 -24 -4 -31 -4 -11 -1 -31 -47
-71 -166 -11 -33 -70 -204 -130 -380 -60 -176 -124 -363 -142 -415 -17 -52
-35 -104 -40 -115 -17 -40 -88 -261 -95 -293 -10 -47 -13 -42 -39 69 -3 9 -11
36 -19 60 -8 24 -81 262 -162 529 -81 267 -150 494 -155 505 -5 11 -11 29 -13
40 -3 11 -10 34 -15 51 -8 26 -7 31 7 31 76 0 128 5 140 12 16 11 23 71 7 72
-6 1 -102 2 -213 3 l-203 1 0 -30z"/>
<path d="M24661 7246 c-5 -6 -26 -51 -46 -101 -20 -49 -43 -103 -50 -120 -8
-16 -59 -142 -115 -280 -56 -137 -108 -263 -116 -280 -7 -16 -26 -64 -42 -105
-33 -83 -168 -414 -182 -445 -5 -11 -19 -45 -31 -75 -12 -30 -25 -58 -29 -63
-3 -4 -35 -9 -70 -12 -69 -5 -80 -14 -80 -60 l0 -30 212 0 212 0 3 31 c5 42
-15 56 -82 58 -30 2 -57 5 -60 8 -5 5 19 76 45 133 4 11 30 76 56 145 26 69
50 128 54 133 9 11 750 12 760 1 14 -16 161 -406 155 -412 -3 -4 -31 -7 -62
-9 -61 -2 -73 -11 -73 -58 l0 -30 212 0 213 0 2 30 c1 17 -1 36 -6 43 -6 11
-52 18 -127 21 -26 1 -22 -7 -144 296 -56 138 -105 259 -110 270 -9 19 -249
605 -332 810 -23 55 -43 102 -45 104 -8 10 -114 7 -122 -3z m79 -161 c4 -11
63 -157 130 -325 66 -168 125 -314 130 -325 18 -38 60 -144 60 -150 0 -3 -153
-5 -340 -5 -187 0 -340 2 -340 4 0 4 15 42 75 186 13 30 73 181 135 335 142
356 132 333 137 315 2 -8 8 -24 13 -35z"/>
<path d="M26181 7250 c-11 -6 -6 -59 6 -71 5 -5 45 -11 88 -13 44 -2 82 -5 85
-5 8 -2 6 -1379 -2 -1387 -4 -4 -42 -8 -84 -9 -41 -2 -80 -7 -86 -13 -15 -15
-18 -72 -4 -73 6 -1 116 -2 243 -3 l233 -1 0 31 c0 51 -19 58 -165 63 l-30 1
0 639 c0 507 3 637 12 634 7 -3 13 -8 13 -12 0 -4 34 -51 76 -106 41 -55 84
-111 94 -125 10 -14 202 -270 426 -570 224 -300 408 -546 409 -547 0 -1 20 -5
43 -8 40 -5 42 -4 43 23 0 15 1 351 1 748 l1 720 81 3 c44 1 87 7 94 13 7 6
12 25 10 42 l-3 31 -237 0 -238 0 0 -37 c0 -44 6 -46 112 -50 l78 -3 0 -645
c-1 -575 -2 -643 -16 -625 -8 11 -101 136 -207 278 -442 592 -606 813 -614
822 -26 33 -152 204 -164 223 -8 12 -23 25 -34 29 -24 8 -252 11 -264 3z"/>
<path d="M7243 4204 c-2 -7 -3 -27 -1 -46 l3 -33 11295 -2 c6212 -1 11305 0
11318 3 21 4 22 9 18 47 -3 23 -5 42 -5 43 -1 0 -5091 1 -11312 1 -8980 0
-11312 -3 -11316 -13z"/>
<path d="M12138 2735 c-2 -1 -30 -5 -63 -9 -33 -3 -104 -17 -157 -31 -407
-105 -709 -398 -830 -805 -10 -36 -21 -83 -24 -104 -3 -22 -7 -43 -9 -46 -6
-10 -18 -177 -18 -245 1 -83 11 -192 24 -256 6 -30 13 -65 15 -79 20 -98 95
-267 171 -383 56 -84 187 -220 273 -282 201 -145 457 -223 740 -223 217 0 356
27 539 107 291 126 498 355 619 686 18 48 50 185 58 245 10 75 11 301 1 377
-18 151 -87 353 -163 483 -168 285 -447 478 -788 546 -68 13 -377 29 -388 19z
m307 -400 c149 -31 247 -84 357 -195 147 -149 220 -362 220 -640 0 -212 -54
-416 -145 -545 -97 -138 -277 -259 -417 -281 -164 -25 -283 -24 -414 6 -224
50 -415 232 -495 471 -20 62 -25 80 -36 140 -17 94 -22 246 -10 354 39 364
254 622 575 690 86 19 275 18 365 0z"/>
<path d="M24138 2735 c-2 -2 -31 -6 -64 -9 -225 -21 -459 -116 -629 -253 -215
-174 -373 -452 -410 -723 -3 -25 -8 -58 -11 -75 -8 -45 -7 -251 1 -325 30
-289 144 -535 339 -734 129 -131 270 -218 459 -281 157 -53 252 -65 467 -61
102 2 194 6 205 9 11 3 47 8 80 12 32 3 62 8 65 10 4 2 22 7 41 10 130 23 347
118 453 199 17 14 18 40 18 503 l1 488 -402 1 -401 2 0 -144 c0 -140 1 -146
25 -169 18 -19 35 -25 67 -26 24 0 101 -1 172 -2 l128 -2 1 -211 c0 -116 -3
-215 -6 -221 -11 -17 -164 -69 -252 -86 -79 -15 -339 -17 -394 -4 -301 76
-488 257 -574 557 -14 47 -28 117 -32 155 -7 71 -8 230 -1 275 2 14 7 45 10
70 25 166 109 336 219 444 93 91 249 172 367 191 25 4 54 9 65 11 24 5 260 5
295 0 14 -2 54 -7 90 -11 69 -7 267 -51 286 -63 7 -4 15 -42 19 -85 3 -43 8
-86 9 -95 2 -9 7 -38 10 -65 10 -65 30 -76 136 -78 47 -1 97 -1 113 0 l27 1 0
309 0 309 -112 36 c-189 60 -347 97 -513 122 -43 6 -361 14 -367 9z"/>
<path d="M26383 2730 c-28 -4 -87 -16 -130 -26 -43 -10 -80 -18 -83 -19 -54
-11 -212 -81 -290 -127 -104 -63 -249 -196 -307 -282 -15 -22 -30 -43 -34 -46
-33 -30 -162 -316 -158 -350 0 -3 -4 -17 -10 -31 -5 -15 -12 -44 -16 -65 -3
-22 -9 -64 -14 -94 -14 -85 -6 -363 13 -457 103 -513 468 -863 986 -948 47 -7
144 -13 215 -13 497 0 893 233 1094 644 96 197 131 369 126 619 -2 94 -6 184
-10 200 -36 170 -63 250 -126 375 -162 324 -467 544 -849 612 -69 12 -337 17
-407 8z m401 -404 c334 -94 523 -379 531 -799 7 -405 -151 -694 -445 -814 -41
-17 -93 -34 -115 -38 -22 -4 -51 -9 -65 -12 -56 -10 -179 -9 -269 3 -329 42
-561 289 -616 654 -21 135 -12 344 19 463 29 113 89 239 148 312 103 125 259
217 408 241 19 3 37 8 39 10 2 2 72 2 155 0 102 -2 170 -9 210 -20z"/>
<path d="M7350 2712 l-95 -3 2 -102 c1 -56 2 -110 2 -119 1 -9 11 -29 24 -43
18 -21 40 -31 107 -44 l85 -17 43 -139 c24 -77 61 -196 82 -265 21 -69 99
-323 174 -565 75 -242 166 -534 202 -650 36 -116 83 -268 106 -340 l40 -130
204 0 203 -1 37 116 c20 63 53 167 74 230 21 63 57 174 80 245 22 72 72 225
110 340 111 342 238 736 256 800 11 38 19 53 22 40 2 -11 21 -74 42 -140 21
-66 75 -232 119 -370 44 -137 116 -365 161 -505 45 -140 116 -361 157 -490 41
-129 77 -242 80 -250 6 -23 400 -23 413 0 7 13 104 316 115 360 2 8 42 139 90
290 47 151 104 334 126 405 22 72 53 171 69 220 46 147 130 417 145 465 8 25
34 111 59 191 l46 146 77 13 c56 10 84 20 106 40 29 26 29 26 29 144 0 64 -3
120 -5 123 -4 4 -668 7 -864 4 l-33 -1 0 -119 c0 -153 6 -163 132 -192 56 -13
85 -25 83 -32 -6 -16 -136 -477 -140 -497 -2 -8 -15 -53 -29 -100 -14 -47 -32
-110 -40 -140 -8 -30 -26 -93 -39 -140 -57 -196 -117 -419 -128 -480 l-13 -65
-22 85 c-12 47 -42 146 -67 220 -41 124 -126 386 -353 1085 -102 312 -103 316
-148 350 -33 25 -40 26 -150 26 -123 -1 -152 -8 -193 -53 -25 -27 -46 -85
-278 -793 -92 -280 -184 -562 -205 -625 -41 -124 -56 -177 -65 -227 -7 -41
-23 -82 -25 -63 -3 31 -31 150 -59 255 -40 148 -101 357 -105 364 -3 4 -8 21
-11 37 -2 16 -43 164 -91 329 -47 165 -87 307 -89 316 -2 8 -10 39 -19 68 -9
30 -14 57 -11 61 2 4 33 13 67 20 73 16 117 52 119 97 4 120 3 196 -2 205 -6
9 -588 17 -809 10z"/>
<path d="M13622 2710 c-18 -5 -20 -13 -18 -120 2 -63 6 -123 11 -133 12 -27
54 -45 152 -63 l90 -16 0 -874 0 -874 -21 -5 c-12 -2 -50 -9 -86 -15 -135 -23
-144 -34 -147 -180 -1 -58 0 -112 3 -120 3 -13 63 -15 474 -15 l470 0 1 25 c0
14 1 70 0 125 -1 90 -3 101 -24 122 -12 13 -32 25 -44 27 -28 6 -80 14 -133
21 -25 3 -54 8 -65 10 -11 2 -23 4 -26 4 -4 1 -7 294 -7 651 -1 358 -4 655 -7
660 -3 5 -2 11 3 14 5 3 33 -27 63 -65 30 -39 101 -130 159 -203 58 -74 134
-171 170 -217 36 -45 101 -129 145 -184 139 -176 287 -365 373 -475 146 -186
254 -323 316 -402 84 -105 102 -112 280 -113 l141 0 0 1040 0 1040 50 12 c28
7 67 15 87 17 50 6 95 31 104 58 4 13 8 74 9 136 l1 112 -60 1 c-78 0 -798 0
-851 0 l-41 -1 1 -114 c1 -168 9 -178 175 -200 19 -2 55 -7 80 -11 l45 -7 1
-596 c0 -328 3 -630 6 -669 4 -40 5 -73 3 -73 -2 0 -38 44 -82 99 -87 109 -76
96 -272 346 -78 99 -151 191 -162 205 -11 14 -54 69 -97 123 -151 193 -473
602 -490 622 -9 11 -30 38 -47 60 -37 49 -41 55 -104 132 -28 34 -60 67 -72
73 -20 11 -519 20 -557 10z"/>
<path d="M16698 2712 c-31 -4 -30 3 -29 -152 0 -93 1 -96 31 -122 17 -16 41
-29 55 -29 14 -1 28 -2 33 -3 4 -1 32 -6 62 -10 76 -11 92 -15 97 -20 8 -7 5
-1305 -2 -1361 -4 -27 -9 -57 -11 -65 -16 -68 -24 -90 -43 -128 -60 -118 -154
-173 -302 -177 -45 -2 -97 1 -117 5 -80 18 -117 18 -149 4 -47 -23 -53 -47
-69 -255 l-6 -85 53 -12 c186 -40 411 -41 552 -3 43 12 86 25 95 30 9 5 43 22
76 37 72 36 181 135 232 211 54 81 106 221 129 348 14 79 17 227 18 818 0 350
3 637 6 638 3 0 14 2 23 4 9 2 35 6 58 9 70 10 120 26 141 47 22 22 21 14 23
157 l2 112 -66 1 c-342 3 -871 3 -892 1z"/>
<path d="M17777 2712 l-28 -3 2 -102 c1 -124 12 -163 48 -182 28 -14 38 -17
116 -30 22 -3 52 -9 67 -11 l26 -5 0 -597 c0 -328 3 -626 7 -662 18 -166 85
-342 181 -476 86 -121 248 -246 394 -302 133 -52 215 -66 400 -66 188 -1 227
3 335 33 199 56 390 185 498 337 72 101 148 281 173 409 4 22 9 328 11 680 2
352 6 641 8 643 2 2 18 5 37 8 18 3 44 7 58 10 14 3 39 8 55 11 48 8 84 34 91
67 12 51 12 236 0 237 -13 0 -864 0 -923 0 l-42 -1 0 -92 c0 -130 6 -166 35
-184 25 -17 73 -30 139 -39 22 -3 49 -7 60 -10 11 -2 23 -4 28 -4 4 -1 7 -269
7 -596 -1 -633 -3 -676 -51 -798 -87 -221 -283 -336 -551 -322 -171 9 -314 90
-403 229 -45 70 -63 118 -86 226 -6 26 -11 299 -11 650 l-1 605 54 12 c30 7
73 15 97 18 103 14 115 34 117 188 1 100 -1 117 -14 117 -83 3 -913 4 -934 2z"/>
<path d="M20403 2712 c-13 -2 -23 -6 -24 -10 -1 -10 -1 -182 0 -210 2 -44 49
-77 131 -91 111 -20 112 -20 117 -25 9 -9 5 -1738 -4 -1745 -4 -4 -44 -13 -88
-20 -89 -14 -129 -31 -145 -61 -8 -16 -16 -177 -11 -240 1 -13 61 -15 476 -15
l475 0 0 113 c0 178 -9 186 -216 208 -34 4 -67 9 -72 13 -7 4 -12 228 -14 671
l-3 666 21 -26 c11 -14 88 -110 169 -215 82 -104 152 -192 155 -195 3 -3 19
-23 36 -45 16 -22 82 -107 147 -190 125 -158 253 -322 510 -650 86 -110 162
-207 170 -215 7 -8 27 -34 45 -56 51 -67 84 -77 250 -79 92 0 142 3 142 10 1
5 1 474 2 1042 l0 1031 62 12 c33 6 75 14 91 16 38 7 71 28 86 55 9 18 15 142
10 234 -1 20 -7 20 -449 18 -246 -1 -459 -2 -473 -2 l-27 -1 0 -107 c-1 -116
8 -154 42 -176 18 -12 91 -26 219 -42 16 -2 31 -6 34 -9 3 -2 6 -304 6 -670 1
-366 -1 -662 -4 -658 -3 4 -30 39 -60 77 -29 39 -57 72 -61 73 -5 2 -8 10 -8
18 0 8 -4 14 -9 14 -4 0 -19 15 -32 34 -18 27 -227 293 -326 416 -22 27 -146
185 -248 316 -55 70 -127 161 -160 203 -33 42 -134 170 -224 284 -101 129
-174 212 -190 218 -23 9 -495 18 -548 11z"/>
<path d="M27906 2710 c-9 -4 -12 -35 -11 -123 2 -112 3 -119 28 -145 21 -21
43 -30 99 -40 40 -7 85 -15 101 -18 l27 -6 0 -874 0 -874 -22 -4 c-13 -3 -59
-12 -103 -21 -57 -11 -87 -22 -104 -40 -23 -23 -25 -31 -25 -147 l-1 -123 595
0 c581 0 729 4 820 25 25 6 54 12 65 14 52 10 188 62 270 102 263 133 449 353
551 656 18 54 31 98 29 98 -2 0 1 15 6 33 31 104 32 390 3 555 -21 123 -97
307 -179 434 -61 93 -199 231 -294 293 -128 83 -325 163 -442 180 -24 3 -60
10 -79 14 -20 4 -74 9 -120 10 -173 5 -1201 6 -1214 1z m1226 -364 c241 -23
448 -156 552 -355 32 -61 73 -169 82 -216 25 -130 30 -176 28 -270 -2 -157
-11 -220 -45 -331 -67 -218 -176 -349 -369 -445 -127 -62 -195 -72 -520 -73
l-255 -1 -1 847 -1 847 71 3 c111 5 389 1 458 -6z"/>
</g>
</svg>
